{"title":"Thor The Dark World (2013) CamRip.flv","uid":9136521,"size":524859262,"categoryP":"video","categoryS":"movies","magnet":"?xt=urn:btih:0f740e0ef000dba59f96d2628ddcd4f6f4b3d8e7&amp;dn=Thor+The+Dark+World+%282013%29+CamRip.flv&amp;tr=udp%3A%2F%2Ftracker.openbittorrent.com%3A80&amp;tr=udp%3A%2F%2Fopen.demonii.com%3A1337&amp;tr=udp%3A%2F%2Ftracker.coppersurfer.tk%3A6969&amp;tr=udp%3A%2F%2Fexodus.desync.com%3A6969","seeders":1,"leechers":0,"uploader":"globeplus","files":-1,"time":1383421993,"description":"Thor The Dark World (2013) CamRip.flv\n\n\nFormat                                   : Flash Video\nFile size                                : 501 MiB\nDuration                                 : 1h 27mn\nOverall bit rate                         : 798 Kbps\nWriting application                      : Encoded By\nTagging application                      : Yet Another Metadata Injector for FLV - Version 1.9\n\nVideo\n\nFormat                                   : AVC\nFormat/Info                              : Advanced Video Codec\nFormat profile                           : &lt;a class=&quot;__cf_email__&quot; href=&quot;/cdn-cgi/l/email-protection&quot; data-cfemail=&quot;f3bb9a949bb3bfc0ddc3&quot;&gt;[email&amp;#160;protected]&lt;/a&gt;&lt;script cf-hash='f9e31' type=&quot;text/javascript&quot;&gt;\n/* &lt;![CDATA[ */!function(){try{var t=&quot;currentScript&quot;in document?document.currentScript:function(){for(var t=document.getElementsByTagName(&quot;script&quot;),e=t.length;e--;)if(t[e].getAttribute(&quot;cf-hash&quot;))return t[e]}();if(t&amp;&amp;t.previousSibling){var e,r,n,i,c=t.previousSibling,a=c.getAttribute(&quot;data-cfemail&quot;);if(a){for(e=&quot;&quot;,r=parseInt(a.substr(0,2),16),n=2;a.length-n;n+=2)i=parseInt(a.substr(n,2),16)^r,e+=String.fromCharCode(i);e=document.createTextNode(e),c.parentNode.replaceChild(e,c)}}}catch(u){}}();/* ]]&gt; */&lt;/script&gt;\nFormat settings, CABAC                   : Yes\nFormat settings, ReFrames                : 4 frames\nCodec ID                                 : 7\nDuration                                 : 1h 27mn\nBit rate                                 : 700 Kbps\nWidth                                    : 720 pixels\nHeight                                   : 320 pixels\nDisplay aspect ratio                     : 2.25:1\nFrame rate mode                          : Constant\nFrame rate                               : 29.970 fps\nColor space                              : YUV\nChroma subsampling                       : 4:2:0\nBit depth                                : 8 bits\nScan type                                : Progressive\nBits/(Pixel*Frame)                       : 0.101\nStream size                              : 436 MiB (87%)\nWriting library                          : x264 core 128 r2 198a7ea\n\n\nAudio\n\nFormat                                   : AAC\nFormat/Info                              : Advanced Audio Codec\nFormat profile                           : LC\nCodec ID                                 : 10\nDuration                                 : 1h 27mn\nBit rate                                 : 94.4 Kbps\nChannel(s)                               : 2 channels\nChannel positions                        : Front: L R\nSampling rate                            : 44.1 KHz\nCompression mode                         : Lossy\nStream size                              : 63.0 MiB (13%)\n\n\nPlot\n\nEons ago, Bor, father of Odin, vanquished the Dark Elves led by Malekith, who sought to return the universe to its state before creation using a force called the Aether. Fighting off Malekith's enhanced warriors the Kursed, Bor contains the Aether within a stone column. Unbeknownst to him, Malekith, his lieutenant Algrim and others escape into suspended animation. In the present, in Asgard, Loki stands before Odin in shackles and is sentenced to prison, while Thor, alongside warriors Fandral, Volstagg and Sif repel invaders from Vanaheim, home of their comrade Hogun; it is the final battle in a two-year war. In London, astrophysicist Jane Foster, who has not seen Thor in that time, attempts a lunch date with a man named Richard (Chris O'Dowd) but is interrupted by her intern Darcy Lewis. She takes Foster to an abandoned factory where the laws of physics are upended in spots and some children have found that objects thrown down a stairwell reappear above them or else vanish. Foster also learns her colleague Dr. Erik Selvig has apparently gone mad and has been detained after attempting to conduct scientific experiments at Stonehenge naked. Foster, after bringing her own scientific equipment to the factory, is sucked into a vortex where the Aether enters her.\n\n\n\n* enjoy ...\n\n","torrent":{"xt":"urn:btih:0f740e0ef000dba59f96d2628ddcd4f6f4b3d8e7","amp;dn":"Thor+The+Dark+World+%282013%29+CamRip.flv","amp;tr":["udp%3A%2F%2Ftracker.openbittorrent.com%3A80","udp%3A%2F%2Fopen.demonii.com%3A1337","udp%3A%2F%2Ftracker.coppersurfer.tk%3A6969","udp%3A%2F%2Fexodus.desync.com%3A6969"],"infoHash":"0f740e0ef000dba59f96d2628ddcd4f6f4b3d8e7","infoHashBuffer":{"type":"Buffer","data":[15,116,14,14,240,0,219,165,159,150,210,98,141,220,212,246,244,179,216,231]},"announce":[],"urlList":[]}}